<?xml version="1.0" standalone="no"?><!DOCTYPE svg PUBLIC "-//W3C//DTD SVG 1.1//EN" "http://www.w3.org/Graphics/SVG/1.1/DTD/svg11.dtd"><svg xmlns:xlink="http://www.w3.org/1999/xlink" version="1.1" style="font-family:'lucida grande', 'lucida sans unicode', arial, helvetica, sans-serif;font-size:12px;" xmlns="http://www.w3.org/2000/svg" width="600" height="400"><desc>Created with Highcharts 4.2.7</desc><defs><linearGradient x1="0" y1="0" x2="1" y2="1" id="highcharts-16"><stop offset="0" stop-color="rgb(48, 48, 96)" stop-opacity="1"></stop><stop offset="1" stop-color="rgb(0, 0, 0)" stop-opacity="1"></stop></linearGradient><clipPath id="highcharts-17"><rect x="0" y="0" width="519" height="263"></rect></clipPath></defs><rect x="1" y="1" width="598" height="398" fill="url(#highcharts-16)" stroke="#000000" stroke-width="2" class=" highcharts-background"></rect><rect x="71" y="63" width="519" height="263" fill="rgb(255, 255, 255)" fill-opacity=" .1"></rect><g class="highcharts-grid"><path fill="none" d="M 169.5 63 L 169.5 326" stroke="#333333" stroke-width="1" opacity="1"></path><path fill="none" d="M 272.5 63 L 272.5 326" stroke="#333333" stroke-width="1" opacity="1"></path><path fill="none" d="M 376.5 63 L 376.5 326" stroke="#333333" stroke-width="1" opacity="1"></path><path fill="none" d="M 480.5 63 L 480.5 326" stroke="#333333" stroke-width="1" opacity="1"></path><path fill="none" d="M 584.5 63 L 584.5 326" stroke="#333333" stroke-width="1" opacity="1"></path></g><g class="highcharts-grid"><path fill="none" d="M 71 326.5 L 590 326.5" stroke="#333333" stroke-width="1" opacity="1"></path><path fill="none" d="M 71 260.5 L 590 260.5" stroke="#333333" stroke-width="1" opacity="1"></path><path fill="none" d="M 71 195.5 L 590 195.5" stroke="#333333" stroke-width="1" opacity="1"></path><path fill="none" d="M 71 129.5 L 590 129.5" stroke="#333333" stroke-width="1" opacity="1"></path><path fill="none" d="M 71 62.5 L 590 62.5" stroke="#333333" stroke-width="1" opacity="1"></path></g><rect x="70.5" y="62.5" width="520" height="264" stroke="#CCCCCC" stroke-width="1" fill="none"></rect><g class="highcharts-axis"><path fill="none" d="M 169.5 326 L 169.5 336" stroke="#A0A0A0" stroke-width="1" opacity="1"></path><path fill="none" d="M 272.5 326 L 272.5 336" stroke="#A0A0A0" stroke-width="1" opacity="1"></path><path fill="none" d="M 376.5 326 L 376.5 336" stroke="#A0A0A0" stroke-width="1" opacity="1"></path><path fill="none" d="M 480.5 326 L 480.5 336" stroke="#A0A0A0" stroke-width="1" opacity="1"></path><path fill="none" d="M 584.5 326 L 584.5 336" stroke="#A0A0A0" stroke-width="1" opacity="1"></path><path fill="none" d="M 71 326.5 L 590 326.5" stroke="#A0A0A0" stroke-width="1"></path></g><g class="highcharts-axis"><path fill="none" d="M 71 326.5 L 61 326.5" stroke="#A0A0A0" stroke-width="1" opacity="1"></path><path fill="none" d="M 71 260.5 L 61 260.5" stroke="#A0A0A0" stroke-width="1" opacity="1"></path><path fill="none" d="M 71 195.5 L 61 195.5" stroke="#A0A0A0" stroke-width="1" opacity="1"></path><path fill="none" d="M 71 129.5 L 61 129.5" stroke="#A0A0A0" stroke-width="1" opacity="1"></path><path fill="none" d="M 71 62.5 L 61 62.5" stroke="#A0A0A0" stroke-width="1" opacity="1"></path><text x="25" text-anchor="middle" transform="translate(0,0) rotate(270 25 194.5)" class=" highcharts-yaxis-title" style="color:#ccc;font-size:12px;font-family:trebuchet ms, verdana, sans-serif;text-transform:none;font-weight:bold;fill:#ccc;" y="194.5"><tspan>Time in milliseconds</tspan></text></g><text x="76" y="80" style="position:absolute;color:#333333;fill:#333333;"></text><g class="highcharts-series-group"><g class="highcharts-series highcharts-series-0" transform="translate(71,63) scale(1 1)" clip-path="url(#highcharts-17)"><path fill="none" d="M 5.0882352941176 118.35000000000005 L 15.472388955582 223.5499999999999 L 25.856542617047 144.64999999999995 L 36.240696278511 65.75 L 46.624849939976 92.0499999999999 L 98.545618247299 65.75 L 202.38715486194 92.0499999999999 L 306.22869147659 144.64999999999995 L 410.07022809124 78.89999999999995 L 513.91176470588 105.2000000000001" stroke="#50B432" stroke-width="2" stroke-linejoin="round" stroke-linecap="round"></path></g><g class="highcharts-markers highcharts-series-0" transform="translate(71,63) scale(1 1)" clip-path="none"><path fill="#50B432" d="M 513 101.2000000000001 C 518.328 101.2000000000001 518.328 109.2000000000001 513 109.2000000000001 C 507.672 109.2000000000001 507.672 101.2000000000001 513 101.2000000000001 Z"></path><path fill="#50B432" d="M 410 74.89999999999995 C 415.328 74.89999999999995 415.328 82.89999999999995 410 82.89999999999995 C 404.672 82.89999999999995 404.672 74.89999999999995 410 74.89999999999995 Z"></path><path fill="#50B432" d="M 306 140.64999999999995 C 311.328 140.64999999999995 311.328 148.64999999999995 306 148.64999999999995 C 300.672 148.64999999999995 300.672 140.64999999999995 306 140.64999999999995 Z"></path><path fill="#50B432" d="M 202 88.0499999999999 C 207.328 88.0499999999999 207.328 96.0499999999999 202 96.0499999999999 C 196.672 96.0499999999999 196.672 88.0499999999999 202 88.0499999999999 Z"></path><path fill="#50B432" d="M 98 61.75 C 103.328 61.75 103.328 69.75 98 69.75 C 92.672 69.75 92.672 61.75 98 61.75 Z"></path><path fill="#50B432" d="M 46 88.0499999999999 C 51.328 88.0499999999999 51.328 96.0499999999999 46 96.0499999999999 C 40.672 96.0499999999999 40.672 88.0499999999999 46 88.0499999999999 Z"></path><path fill="#50B432" d="M 36 61.75 C 41.328 61.75 41.328 69.75 36 69.75 C 30.672 69.75 30.672 61.75 36 61.75 Z"></path><path fill="#50B432" d="M 25 140.64999999999995 C 30.328 140.64999999999995 30.328 148.64999999999995 25 148.64999999999995 C 19.672 148.64999999999995 19.672 140.64999999999995 25 140.64999999999995 Z"></path><path fill="#50B432" d="M 15 219.5499999999999 C 20.328 219.5499999999999 20.328 227.5499999999999 15 227.5499999999999 C 9.672 227.5499999999999 9.672 219.5499999999999 15 219.5499999999999 Z"></path><path fill="#50B432" d="M 5 114.35000000000005 C 10.328 114.35000000000005 10.328 122.35000000000005 5 122.35000000000005 C -0.32800000000000007 122.35000000000005 -0.32800000000000007 114.35000000000005 5 114.35000000000005 Z"></path></g><g class="highcharts-series highcharts-series-1" transform="translate(71,63) scale(1 1)" clip-path="url(#highcharts-17)"><path fill="none" d="M 5.0882352941176 118.35000000000005 L 15.472388955582 223.5499999999999 L 25.856542617047 118.35000000000005 L 36.240696278511 52.599999999999824 L 46.624849939976 78.89999999999995 L 98.545618247299 78.89999999999995 L 202.38715486194 78.89999999999995 L 306.22869147659 118.35000000000005 L 410.07022809124 78.89999999999995 L 513.91176470588 78.89999999999995" stroke="#ED561B" stroke-width="2" stroke-linejoin="round" stroke-linecap="round"></path></g><g class="highcharts-markers highcharts-series-1" transform="translate(71,63) scale(1 1)" clip-path="none"><path fill="#ED561B" d="M 513 74.89999999999995 L 517 78.89999999999995 513 82.89999999999995 509 78.89999999999995 Z"></path><path fill="#ED561B" d="M 410 74.89999999999995 L 414 78.89999999999995 410 82.89999999999995 406 78.89999999999995 Z"></path><path fill="#ED561B" d="M 306 114.35000000000005 L 310 118.35000000000005 306 122.35000000000005 302 118.35000000000005 Z"></path><path fill="#ED561B" d="M 202 74.89999999999995 L 206 78.89999999999995 202 82.89999999999995 198 78.89999999999995 Z"></path><path fill="#ED561B" d="M 98 74.89999999999995 L 102 78.89999999999995 98 82.89999999999995 94 78.89999999999995 Z"></path><path fill="#ED561B" d="M 46 74.89999999999995 L 50 78.89999999999995 46 82.89999999999995 42 78.89999999999995 Z"></path><path fill="#ED561B" d="M 36 48.599999999999824 L 40 52.599999999999824 36 56.599999999999824 32 52.599999999999824 Z"></path><path fill="#ED561B" d="M 25 114.35000000000005 L 29 118.35000000000005 25 122.35000000000005 21 118.35000000000005 Z"></path><path fill="#ED561B" d="M 15 219.5499999999999 L 19 223.5499999999999 15 227.5499999999999 11 223.5499999999999 Z"></path><path fill="#ED561B" d="M 5 114.35000000000005 L 9 118.35000000000005 5 122.35000000000005 1 118.35000000000005 Z"></path></g></g><text x="300" text-anchor="middle" class="highcharts-title" style="color:#c0c0c0;font-size:16px;font-family:'trebuchet ms', verdana, sans-serif;text-transform:none;font-weight:bold;fill:#c0c0c0;width:536px;" y="22"><tspan>Average waiting Time vs Ratio of exponential parameters</tspan><tspan dy="19" x="300">Using Locks</tspan><title>Average waiting Time vs Ratio of exponential parameters Using Locks</title></text><g class="highcharts-data-labels highcharts-series-0" transform="translate(71,63) scale(1 1)" opacity="1"><g style="cursor:pointer;" transform="translate(-5,97)"><text x="5" style="font-size: 10px; font-weight: bold; font-family: 'arial', sans-serif; color: rgb(160, 160, 160); fill: rgb(160, 160, 160); text-rendering: geometricprecision; text-shadow: none;" y="15"><tspan>15.6</tspan></text></g><g style="cursor:pointer;" transform="translate(1,203)"><text x="5" style="font-size:10px;font-weight:bold;font-family:'arial', sans-serif;color:#a0a0a0;text-shadow:none;fill:#a0a0a0;text-rendering:geometricprecision;" y="15"><tspan>14.8</tspan></text></g><g style="cursor:pointer;" transform="translate(11,124)"><text x="5" style="font-size:10px;font-weight:bold;font-family:'arial', sans-serif;color:#a0a0a0;text-shadow:none;fill:#a0a0a0;text-rendering:geometricprecision;" y="15"><tspan>15.4</tspan></text></g><g style="cursor:pointer;" transform="translate(26,45)"><text x="5" style="font-size: 10px; font-weight: bold; font-family: 'arial', sans-serif; color: rgb(160, 160, 160); fill: rgb(160, 160, 160); text-rendering: geometricprecision; text-shadow: none;" y="15"><tspan>16</tspan></text></g><g style="cursor:pointer;" transform="translate(32,71)"><text x="5" style="font-size:10px;font-weight:bold;font-family:'arial', sans-serif;color:#a0a0a0;text-shadow:none;fill:#a0a0a0;text-rendering:geometricprecision;" y="15"><tspan>15.8</tspan></text></g><g style="cursor:pointer;" transform="translate(88,45)"><text x="5" style="font-size:10px;font-weight:bold;font-family:'arial', sans-serif;color:#a0a0a0;text-shadow:none;fill:#a0a0a0;text-rendering:geometricprecision;" y="15"><tspan>16</tspan></text></g><g style="cursor:pointer;" transform="translate(188,71)"><text x="5" style="font-size:10px;font-weight:bold;font-family:'arial', sans-serif;color:#a0a0a0;text-shadow:none;fill:#a0a0a0;text-rendering:geometricprecision;" y="15"><tspan>15.8</tspan></text></g><g style="cursor:pointer;" transform="translate(292,124)"><text x="5" style="font-size:10px;font-weight:bold;font-family:'arial', sans-serif;color:#a0a0a0;text-shadow:none;fill:#a0a0a0;text-rendering:geometricprecision;" y="15"><tspan>15.4</tspan></text></g><g style="cursor:pointer;" transform="translate(395,58)"><text x="5" style="font-size:10px;font-weight:bold;font-family:'arial', sans-serif;color:#a0a0a0;text-shadow:none;fill:#a0a0a0;text-rendering:geometricprecision;" y="15"><tspan>15.9</tspan></text></g><g style="cursor:pointer;" transform="translate(495,84)"><text x="5" style="font-size:10px;font-weight:bold;font-family:'arial', sans-serif;color:#a0a0a0;text-shadow:none;fill:#a0a0a0;text-rendering:geometricprecision;" y="15"><tspan>15.7</tspan></text></g></g><g class="highcharts-data-labels highcharts-series-1" transform="translate(71,63) scale(1 1)" opacity="1"><g style="cursor:pointer;" transform="translate(-5,97)" opacity="0" visibility="hidden"><text x="5" style="font-size:10px;font-weight:bold;font-family:'arial', sans-serif;color:#a0a0a0;text-shadow:none;fill:#a0a0a0;text-rendering:geometricprecision;" y="15"><tspan>15.6</tspan></text></g><g style="cursor:pointer;" transform="translate(1,203)" opacity="0" visibility="hidden"><text x="5" style="font-size:10px;font-weight:bold;font-family:'arial', sans-serif;color:#a0a0a0;text-shadow:none;fill:#a0a0a0;text-rendering:geometricprecision;" y="15"><tspan>14.8</tspan></text></g><g style="cursor:pointer;" transform="translate(11,97)" opacity="0" visibility="hidden"><text x="5" style="font-size:10px;font-weight:bold;font-family:'arial', sans-serif;color:#a0a0a0;text-shadow:none;fill:#a0a0a0;text-rendering:geometricprecision;" y="15"><tspan>15.6</tspan></text></g><g style="cursor:pointer;" transform="translate(22,32)"><text x="5" style="font-size:10px;font-weight:bold;font-family:'arial', sans-serif;color:#a0a0a0;text-shadow:none;fill:#a0a0a0;text-rendering:geometricprecision;" y="15"><tspan>16.1</tspan></text></g><g style="cursor:pointer;" transform="translate(32,58)"><text x="5" style="font-size:10px;font-weight:bold;font-family:'arial', sans-serif;color:#a0a0a0;text-shadow:none;fill:#a0a0a0;text-rendering:geometricprecision;" y="15"><tspan>15.9</tspan></text></g><g style="cursor:pointer;" transform="translate(84,58)"><text x="5" style="font-size:10px;font-weight:bold;font-family:'arial', sans-serif;color:#a0a0a0;text-shadow:none;fill:#a0a0a0;text-rendering:geometricprecision;" y="15"><tspan>15.9</tspan></text></g><g style="cursor:pointer;" transform="translate(188,58)"><text x="5" style="font-size:10px;font-weight:bold;font-family:'arial', sans-serif;color:#a0a0a0;text-shadow:none;fill:#a0a0a0;text-rendering:geometricprecision;" y="15"><tspan>15.9</tspan></text></g><g style="cursor:pointer;" transform="translate(292,97)"><text x="5" style="font-size:10px;font-weight:bold;font-family:'arial', sans-serif;color:#a0a0a0;text-shadow:none;fill:#a0a0a0;text-rendering:geometricprecision;" y="15"><tspan>15.6</tspan></text></g><g style="cursor:pointer;" transform="translate(395,58)" opacity="0" visibility="hidden"><text x="5" style="font-size:10px;font-weight:bold;font-family:'arial', sans-serif;color:#a0a0a0;text-shadow:none;fill:#a0a0a0;text-rendering:geometricprecision;" y="15"><tspan>15.9</tspan></text></g><g style="cursor:pointer;" transform="translate(495,58)"><text x="5" style="font-size:10px;font-weight:bold;font-family:'arial', sans-serif;color:#a0a0a0;text-shadow:none;fill:#a0a0a0;text-rendering:geometricprecision;" y="15"><tspan>15.9</tspan></text></g></g><g class="highcharts-legend" transform="translate(204,359)"><g><g><g class="highcharts-legend-item" transform="translate(8,3)"><path fill="none" d="M 0 11 L 16 11" stroke="#50B432" stroke-width="2"></path><path fill="#50B432" d="M 8 7 C 13.328 7 13.328 15 8 15 C 2.6719999999999997 15 2.6719999999999997 7 8 7 Z"></path><text x="21" style="color:#a0a0a0;font-size:9pt;font-weight:normal;cursor:pointer;font-family:trebuchet ms, verdana, sans-serif;text-transform:none;fill:#a0a0a0;" text-anchor="start" y="15">Producer</text></g><g class="highcharts-legend-item" transform="translate(103,3)"><path fill="none" d="M 0 11 L 16 11" stroke="#ED561B" stroke-width="2"></path><path fill="#ED561B" d="M 8 7 L 12 11 8 15 4 11 Z"></path><text x="21" y="15" style="color:#a0a0a0;font-size:9pt;font-weight:normal;cursor:pointer;font-family:trebuchet ms, verdana, sans-serif;text-transform:none;fill:#a0a0a0;" text-anchor="start">Consumer</text></g></g></g></g><g class="highcharts-axis-labels highcharts-xaxis-labels"><text x="169.5456182472989" style="color:#a0a0a0;cursor:default;font-size:10px;font-family:'lucida grande','lucida sans unicode',arial,helvetica,sans-serif;text-transform:none;font-weight:normal;fill:#a0a0a0;" text-anchor="middle" transform="translate(0,0)" y="344" opacity="1">2</text><text x="273.38715486194474" style="color:#a0a0a0;cursor:default;font-size:10px;font-family:'lucida grande','lucida sans unicode',arial,helvetica,sans-serif;text-transform:none;font-weight:normal;fill:#a0a0a0;" text-anchor="middle" transform="translate(0,0)" y="344" opacity="1">4</text><text x="377.2286914765906" style="color:#a0a0a0;cursor:default;font-size:10px;font-family:'lucida grande','lucida sans unicode',arial,helvetica,sans-serif;text-transform:none;font-weight:normal;fill:#a0a0a0;" text-anchor="middle" transform="translate(0,0)" y="344" opacity="1">6</text><text x="481.07022809123646" style="color:#a0a0a0;cursor:default;font-size:10px;font-family:'lucida grande','lucida sans unicode',arial,helvetica,sans-serif;text-transform:none;font-weight:normal;fill:#a0a0a0;" text-anchor="middle" transform="translate(0,0)" y="344" opacity="1">8</text><text x="584" style="color:#a0a0a0;cursor:default;font-size:10px;font-family:'lucida grande','lucida sans unicode',arial,helvetica,sans-serif;text-transform:none;font-weight:normal;fill:#a0a0a0;" text-anchor="middle" transform="translate(0,0)" y="344" opacity="1">10</text></g><g class="highcharts-axis-labels highcharts-yaxis-labels"><text x="56" style="color:#a0a0a0;cursor:default;font-size:10px;font-family:'lucida grande','lucida sans unicode',arial,helvetica,sans-serif;text-transform:none;font-weight:normal;fill:#a0a0a0;width:188px;text-overflow:clip;" text-anchor="end" transform="translate(0,0)" y="330" opacity="1"><tspan>14.5</tspan></text><text x="56" style="color:#a0a0a0;cursor:default;font-size:10px;font-family:'lucida grande','lucida sans unicode',arial,helvetica,sans-serif;text-transform:none;font-weight:normal;fill:#a0a0a0;width:188px;text-overflow:clip;" text-anchor="end" transform="translate(0,0)" y="264" opacity="1"><tspan>15</tspan></text><text x="56" style="color:#a0a0a0;cursor:default;font-size:10px;font-family:'lucida grande','lucida sans unicode',arial,helvetica,sans-serif;text-transform:none;font-weight:normal;fill:#a0a0a0;width:188px;text-overflow:clip;" text-anchor="end" transform="translate(0,0)" y="198" opacity="1"><tspan>15.5</tspan></text><text x="56" style="color:#a0a0a0;cursor:default;font-size:10px;font-family:'lucida grande','lucida sans unicode',arial,helvetica,sans-serif;text-transform:none;font-weight:normal;fill:#a0a0a0;width:188px;text-overflow:clip;" text-anchor="end" transform="translate(0,0)" y="132" opacity="1"><tspan>16</tspan></text><text x="56" style="color:#a0a0a0;cursor:default;font-size:10px;font-family:'lucida grande','lucida sans unicode',arial,helvetica,sans-serif;text-transform:none;font-weight:normal;fill:#a0a0a0;width:188px;text-overflow:clip;" text-anchor="end" transform="translate(0,0)" y="67" opacity="1"><tspan>16.5</tspan></text></g><g class="highcharts-tooltip" display="none" style="cursor:default;padding:0;pointer-events:none;white-space:nowrap;" transform="translate(0,0)"><path fill="none" d="M 3.5 0.5 L 13.5 0.5 C 16.5 0.5 16.5 0.5 16.5 3.5 L 16.5 13.5 C 16.5 16.5 16.5 16.5 13.5 16.5 L 3.5 16.5 C 0.5 16.5 0.5 16.5 0.5 13.5 L 0.5 3.5 C 0.5 0.5 0.5 0.5 3.5 0.5"  stroke="black" stroke-opacity="0.049999999999999996" stroke-width="5" transform="translate(1, 1)"></path><path fill="none" d="M 3.5 0.5 L 13.5 0.5 C 16.5 0.5 16.5 0.5 16.5 3.5 L 16.5 13.5 C 16.5 16.5 16.5 16.5 13.5 16.5 L 3.5 16.5 C 0.5 16.5 0.5 16.5 0.5 13.5 L 0.5 3.5 C 0.5 0.5 0.5 0.5 3.5 0.5"  stroke="black" stroke-opacity="0.09999999999999999" stroke-width="3" transform="translate(1, 1)"></path><path fill="none" d="M 3.5 0.5 L 13.5 0.5 C 16.5 0.5 16.5 0.5 16.5 3.5 L 16.5 13.5 C 16.5 16.5 16.5 16.5 13.5 16.5 L 3.5 16.5 C 0.5 16.5 0.5 16.5 0.5 13.5 L 0.5 3.5 C 0.5 0.5 0.5 0.5 3.5 0.5"  stroke="black" stroke-opacity="0.15" stroke-width="1" transform="translate(1, 1)"></path><path fill="rgb(0, 0, 0)" fill-opacity=" 0.75" d="M 3.5 0.5 L 13.5 0.5 C 16.5 0.5 16.5 0.5 16.5 3.5 L 16.5 13.5 C 16.5 16.5 16.5 16.5 13.5 16.5 L 3.5 16.5 C 0.5 16.5 0.5 16.5 0.5 13.5 L 0.5 3.5 C 0.5 0.5 0.5 0.5 3.5 0.5"></path><text x="8" style="font-size:12px;color:#f0f0f0;fill:#f0f0f0;" y="20"></text></g><text x="590" text-anchor="end" style="cursor:pointer;color:#666;font-size:9px;fill:#666;" y="395">meta-chart.com</text></svg>