<?xml version="1.0" standalone="no"?><!DOCTYPE svg PUBLIC "-//W3C//DTD SVG 1.1//EN" "http://www.w3.org/Graphics/SVG/1.1/DTD/svg11.dtd"><svg xmlns:xlink="http://www.w3.org/1999/xlink" version="1.1" style="font-family:'lucida grande', 'lucida sans unicode', arial, helvetica, sans-serif;font-size:12px;" xmlns="http://www.w3.org/2000/svg" width="600" height="400"><desc>Created with Highcharts 4.2.7</desc><defs><linearGradient x1="0" y1="0" x2="1" y2="1" id="highcharts-17"><stop offset="0" stop-color="rgb(48, 48, 96)" stop-opacity="1"></stop><stop offset="1" stop-color="rgb(0, 0, 0)" stop-opacity="1"></stop></linearGradient><clipPath id="highcharts-18"><rect x="0" y="0" width="519" height="263"></rect></clipPath></defs><rect x="1" y="1" width="598" height="398" fill="url(#highcharts-17)" stroke="#000000" stroke-width="2" class=" highcharts-background"></rect><rect x="71" y="63" width="519" height="263" fill="rgb(255, 255, 255)" fill-opacity=" .1"></rect><g class="highcharts-grid"><path fill="none" d="M 169.5 63 L 169.5 326" stroke="#333333" stroke-width="1" opacity="1"></path><path fill="none" d="M 272.5 63 L 272.5 326" stroke="#333333" stroke-width="1" opacity="1"></path><path fill="none" d="M 376.5 63 L 376.5 326" stroke="#333333" stroke-width="1" opacity="1"></path><path fill="none" d="M 480.5 63 L 480.5 326" stroke="#333333" stroke-width="1" opacity="1"></path><path fill="none" d="M 584.5 63 L 584.5 326" stroke="#333333" stroke-width="1" opacity="1"></path></g><g class="highcharts-grid"><path fill="none" d="M 71 326.5 L 590 326.5" stroke="#333333" stroke-width="1" opacity="1"></path><path fill="none" d="M 71 273.5 L 590 273.5" stroke="#333333" stroke-width="1" opacity="1"></path><path fill="none" d="M 71 221.5 L 590 221.5" stroke="#333333" stroke-width="1" opacity="1"></path><path fill="none" d="M 71 168.5 L 590 168.5" stroke="#333333" stroke-width="1" opacity="1"></path><path fill="none" d="M 71 116.5 L 590 116.5" stroke="#333333" stroke-width="1" opacity="1"></path><path fill="none" d="M 71 62.5 L 590 62.5" stroke="#333333" stroke-width="1" opacity="1"></path></g><rect x="70.5" y="62.5" width="520" height="264" stroke="#CCCCCC" stroke-width="1" fill="none"></rect><g class="highcharts-axis"><path fill="none" d="M 169.5 326 L 169.5 336" stroke="#A0A0A0" stroke-width="1" opacity="1"></path><path fill="none" d="M 272.5 326 L 272.5 336" stroke="#A0A0A0" stroke-width="1" opacity="1"></path><path fill="none" d="M 376.5 326 L 376.5 336" stroke="#A0A0A0" stroke-width="1" opacity="1"></path><path fill="none" d="M 480.5 326 L 480.5 336" stroke="#A0A0A0" stroke-width="1" opacity="1"></path><path fill="none" d="M 584.5 326 L 584.5 336" stroke="#A0A0A0" stroke-width="1" opacity="1"></path><path fill="none" d="M 71 326.5 L 590 326.5" stroke="#A0A0A0" stroke-width="1"></path></g><g class="highcharts-axis"><path fill="none" d="M 71 326.5 L 61 326.5" stroke="#A0A0A0" stroke-width="1" opacity="1"></path><path fill="none" d="M 71 273.5 L 61 273.5" stroke="#A0A0A0" stroke-width="1" opacity="1"></path><path fill="none" d="M 71 221.5 L 61 221.5" stroke="#A0A0A0" stroke-width="1" opacity="1"></path><path fill="none" d="M 71 168.5 L 61 168.5" stroke="#A0A0A0" stroke-width="1" opacity="1"></path><path fill="none" d="M 71 116.5 L 61 116.5" stroke="#A0A0A0" stroke-width="1" opacity="1"></path><path fill="none" d="M 71 62.5 L 61 62.5" stroke="#A0A0A0" stroke-width="1" opacity="1"></path><text x="25" text-anchor="middle" transform="translate(0,0) rotate(270 25 194.5)" class=" highcharts-yaxis-title" style="color:#ccc;font-size:12px;font-family:trebuchet ms, verdana, sans-serif;text-transform:none;font-weight:bold;fill:#ccc;" y="194.5"><tspan>Time in milliseconds</tspan></text></g><text x="76" y="80" style="position:absolute;color:#333333;fill:#333333;"></text><g class="highcharts-series-group"><g class="highcharts-series highcharts-series-0" transform="translate(71,63) scale(1 1)" clip-path="url(#highcharts-18)"><path fill="none" d="M 5.0882352941176 153.592 L 15.472388955582 199.88 L 25.856542617047 138.864 L 36.240696278511 199.88 L 46.624849939976 155.69600000000003 L 98.545618247299 193.56799999999998 L 202.38715486194 136.76 L 306.22869147659 138.864 L 410.07022809124 124.13599999999997 L 513.91176470588 84.16" stroke="#50B432" stroke-width="2" stroke-linejoin="round" stroke-linecap="round"></path></g><g class="highcharts-markers highcharts-series-0" transform="translate(71,63) scale(1 1)" clip-path="none"><path fill="#50B432" d="M 513 80.16 C 518.328 80.16 518.328 88.16 513 88.16 C 507.672 88.16 507.672 80.16 513 80.16 Z"></path><path fill="#50B432" d="M 410 120.13599999999997 C 415.328 120.13599999999997 415.328 128.13599999999997 410 128.13599999999997 C 404.672 128.13599999999997 404.672 120.13599999999997 410 120.13599999999997 Z"></path><path fill="#50B432" d="M 306 134.864 C 311.328 134.864 311.328 142.864 306 142.864 C 300.672 142.864 300.672 134.864 306 134.864 Z"></path><path fill="#50B432" d="M 202 132.76 C 207.328 132.76 207.328 140.76 202 140.76 C 196.672 140.76 196.672 132.76 202 132.76 Z"></path><path fill="#50B432" d="M 98 189.56799999999998 C 103.328 189.56799999999998 103.328 197.56799999999998 98 197.56799999999998 C 92.672 197.56799999999998 92.672 189.56799999999998 98 189.56799999999998 Z"></path><path fill="#50B432" d="M 46 151.69600000000003 C 51.328 151.69600000000003 51.328 159.69600000000003 46 159.69600000000003 C 40.672 159.69600000000003 40.672 151.69600000000003 46 151.69600000000003 Z"></path><path fill="#50B432" d="M 36 195.88 C 41.328 195.88 41.328 203.88 36 203.88 C 30.672 203.88 30.672 195.88 36 195.88 Z"></path><path fill="#50B432" d="M 25 134.864 C 30.328 134.864 30.328 142.864 25 142.864 C 19.672 142.864 19.672 134.864 25 134.864 Z"></path><path fill="#50B432" d="M 15 195.88 C 20.328 195.88 20.328 203.88 15 203.88 C 9.672 203.88 9.672 195.88 15 195.88 Z"></path><path fill="#50B432" d="M 5 149.592 C 10.328 149.592 10.328 157.592 5 157.592 C -0.32800000000000007 157.592 -0.32800000000000007 149.592 5 149.592 Z"></path></g><g class="highcharts-series highcharts-series-1" transform="translate(71,63) scale(1 1)" clip-path="url(#highcharts-18)"><path fill="none" d="M 5.0882352941176 151.488 L 15.472388955582 220.92000000000002 L 25.856542617047 138.864 L 36.240696278511 199.88 L 46.624849939976 149.38400000000001 L 98.545618247299 220.92000000000002 L 202.38715486194 136.76 L 306.22869147659 138.864 L 410.07022809124 122.03200000000001 L 513.91176470588 79.95200000000003" stroke="#ED561B" stroke-width="2" stroke-linejoin="round" stroke-linecap="round"></path></g><g class="highcharts-markers highcharts-series-1" transform="translate(71,63) scale(1 1)" clip-path="none"><path fill="#ED561B" d="M 513 75.95200000000003 L 517 79.95200000000003 513 83.95200000000003 509 79.95200000000003 Z"></path><path fill="#ED561B" d="M 410 118.03200000000001 L 414 122.03200000000001 410 126.03200000000001 406 122.03200000000001 Z"></path><path fill="#ED561B" d="M 306 134.864 L 310 138.864 306 142.864 302 138.864 Z"></path><path fill="#ED561B" d="M 202 132.76 L 206 136.76 202 140.76 198 136.76 Z"></path><path fill="#ED561B" d="M 98 216.92000000000002 L 102 220.92000000000002 98 224.92000000000002 94 220.92000000000002 Z"></path><path fill="#ED561B" d="M 46 145.38400000000001 L 50 149.38400000000001 46 153.38400000000001 42 149.38400000000001 Z"></path><path fill="#ED561B" d="M 36 195.88 L 40 199.88 36 203.88 32 199.88 Z"></path><path fill="#ED561B" d="M 25 134.864 L 29 138.864 25 142.864 21 138.864 Z"></path><path fill="#ED561B" d="M 15 216.92000000000002 L 19 220.92000000000002 15 224.92000000000002 11 220.92000000000002 Z"></path><path fill="#ED561B" d="M 5 147.488 L 9 151.488 5 155.488 1 151.488 Z"></path></g></g><text x="300" text-anchor="middle" class="highcharts-title" style="color:#c0c0c0;font-size:16px;font-family:'trebuchet ms', verdana, sans-serif;text-transform:none;font-weight:bold;fill:#c0c0c0;width:536px;" y="22"><tspan>Average Waiting Time vs Ratio of exponential parameter</tspan><tspan dy="19" x="300">Using semaphores</tspan><title>Average Waiting Time vs Ratio of exponential parameter Using semaphores</title></text><g class="highcharts-data-labels highcharts-series-0" transform="translate(71,63) scale(1 1)" opacity="1"><g style="cursor:pointer;" transform="translate(-5,133)"><text x="5" style="font-size: 10px; font-weight: bold; font-family: 'arial', sans-serif; color: rgb(160, 160, 160); fill: rgb(160, 160, 160); text-rendering: geometricprecision; text-shadow: none;" y="15"><tspan>15.2</tspan></text></g><g style="cursor:pointer;" transform="translate(5,179)"><text x="5" style="font-size: 10px; font-weight: bold; font-family: 'arial', sans-serif; color: rgb(160, 160, 160); fill: rgb(160, 160, 160); text-rendering: geometricprecision; text-shadow: none;" y="15"><tspan>13</tspan></text></g><g style="cursor:pointer;" transform="translate(11,118)"><text x="5" style="font-size:10px;font-weight:bold;font-family:'arial', sans-serif;color:#a0a0a0;text-shadow:none;fill:#a0a0a0;text-rendering:geometricprecision;" y="15"><tspan>15.9</tspan></text></g><g style="cursor:pointer;" transform="translate(26,179)"><text x="5" style="font-size:10px;font-weight:bold;font-family:'arial', sans-serif;color:#a0a0a0;text-shadow:none;fill:#a0a0a0;text-rendering:geometricprecision;" y="15"><tspan>13</tspan></text></g><g style="cursor:pointer;" transform="translate(32,135)"><text x="5" style="font-size:10px;font-weight:bold;font-family:'arial', sans-serif;color:#a0a0a0;text-shadow:none;fill:#a0a0a0;text-rendering:geometricprecision;" y="15"><tspan>15.1</tspan></text></g><g style="cursor:pointer;" transform="translate(84,173)"><text x="5" style="font-size:10px;font-weight:bold;font-family:'arial', sans-serif;color:#a0a0a0;text-shadow:none;fill:#a0a0a0;text-rendering:geometricprecision;" y="15"><tspan>13.3</tspan></text></g><g style="cursor:pointer;" transform="translate(192,116)"><text x="5" style="font-size:10px;font-weight:bold;font-family:'arial', sans-serif;color:#a0a0a0;text-shadow:none;fill:#a0a0a0;text-rendering:geometricprecision;" y="15"><tspan>16</tspan></text></g><g style="cursor:pointer;" transform="translate(292,118)"><text x="5" style="font-size:10px;font-weight:bold;font-family:'arial', sans-serif;color:#a0a0a0;text-shadow:none;fill:#a0a0a0;text-rendering:geometricprecision;" y="15"><tspan>15.9</tspan></text></g><g style="cursor:pointer;" transform="translate(395,103)"><text x="5" style="font-size:10px;font-weight:bold;font-family:'arial', sans-serif;color:#a0a0a0;text-shadow:none;fill:#a0a0a0;text-rendering:geometricprecision;" y="15"><tspan>16.6</tspan></text></g><g style="cursor:pointer;" transform="translate(495,63)"><text x="5" style="font-size:10px;font-weight:bold;font-family:'arial', sans-serif;color:#a0a0a0;text-shadow:none;fill:#a0a0a0;text-rendering:geometricprecision;" y="15"><tspan>18.5</tspan></text></g></g><g class="highcharts-data-labels highcharts-series-1" transform="translate(71,63) scale(1 1)" opacity="1"><g style="cursor:pointer;" transform="translate(-5,130)" opacity="0" visibility="hidden"><text x="5" style="font-size:10px;font-weight:bold;font-family:'arial', sans-serif;color:#a0a0a0;text-shadow:none;fill:#a0a0a0;text-rendering:geometricprecision;" y="15"><tspan>15.3</tspan></text></g><g style="cursor:pointer;" transform="translate(5,200)"><text x="5" style="font-size:10px;font-weight:bold;font-family:'arial', sans-serif;color:#a0a0a0;text-shadow:none;fill:#a0a0a0;text-rendering:geometricprecision;" y="15"><tspan>12</tspan></text></g><g style="cursor:pointer;" transform="translate(11,118)" opacity="0" visibility="hidden"><text x="5" style="font-size:10px;font-weight:bold;font-family:'arial', sans-serif;color:#a0a0a0;text-shadow:none;fill:#a0a0a0;text-rendering:geometricprecision;" y="15"><tspan>15.9</tspan></text></g><g style="cursor:pointer;" transform="translate(26,179)" opacity="0" visibility="hidden"><text x="5" style="font-size:10px;font-weight:bold;font-family:'arial', sans-serif;color:#a0a0a0;text-shadow:none;fill:#a0a0a0;text-rendering:geometricprecision;" y="15"><tspan>13</tspan></text></g><g style="cursor:pointer;" transform="translate(32,128)" opacity="0" visibility="hidden"><text x="5" style="font-size:10px;font-weight:bold;font-family:'arial', sans-serif;color:#a0a0a0;text-shadow:none;fill:#a0a0a0;text-rendering:geometricprecision;" y="15"><tspan>15.4</tspan></text></g><g style="cursor:pointer;" transform="translate(88,200)"><text x="5" style="font-size:10px;font-weight:bold;font-family:'arial', sans-serif;color:#a0a0a0;text-shadow:none;fill:#a0a0a0;text-rendering:geometricprecision;" y="15"><tspan>12</tspan></text></g><g style="cursor:pointer;" transform="translate(192,116)" opacity="0" visibility="hidden"><text x="5" style="font-size:10px;font-weight:bold;font-family:'arial', sans-serif;color:#a0a0a0;text-shadow:none;fill:#a0a0a0;text-rendering:geometricprecision;" y="15"><tspan>16</tspan></text></g><g style="cursor:pointer;" transform="translate(292,118)" opacity="0" visibility="hidden"><text x="5" style="font-size:10px;font-weight:bold;font-family:'arial', sans-serif;color:#a0a0a0;text-shadow:none;fill:#a0a0a0;text-rendering:geometricprecision;" y="15"><tspan>15.9</tspan></text></g><g style="cursor:pointer;" transform="translate(395,101)" opacity="0" visibility="hidden"><text x="5" style="font-size:10px;font-weight:bold;font-family:'arial', sans-serif;color:#a0a0a0;text-shadow:none;fill:#a0a0a0;text-rendering:geometricprecision;" y="15"><tspan>16.7</tspan></text></g><g style="cursor:pointer;" transform="translate(495,59)" opacity="0" visibility="hidden"><text x="5" style="font-size:10px;font-weight:bold;font-family:'arial', sans-serif;color:#a0a0a0;text-shadow:none;fill:#a0a0a0;text-rendering:geometricprecision;" y="15"><tspan>18.7</tspan></text></g></g><g class="highcharts-legend" transform="translate(204,359)"><g><g><g class="highcharts-legend-item" transform="translate(8,3)"><path fill="none" d="M 0 11 L 16 11" stroke="#50B432" stroke-width="2"></path><path fill="#50B432" d="M 8 7 C 13.328 7 13.328 15 8 15 C 2.6719999999999997 15 2.6719999999999997 7 8 7 Z"></path><text x="21" style="color:#a0a0a0;font-size:9pt;font-weight:normal;cursor:pointer;font-family:trebuchet ms, verdana, sans-serif;text-transform:none;fill:#a0a0a0;" text-anchor="start" y="15">Producer</text></g><g class="highcharts-legend-item" transform="translate(103,3)"><path fill="none" d="M 0 11 L 16 11" stroke="#ED561B" stroke-width="2"></path><path fill="#ED561B" d="M 8 7 L 12 11 8 15 4 11 Z"></path><text x="21" y="15" style="color:#a0a0a0;font-size:9pt;font-weight:normal;cursor:pointer;font-family:trebuchet ms, verdana, sans-serif;text-transform:none;fill:#a0a0a0;" text-anchor="start">Consumer</text></g></g></g></g><g class="highcharts-axis-labels highcharts-xaxis-labels"><text x="169.5456182472989" style="color:#a0a0a0;cursor:default;font-size:10px;font-family:'lucida grande','lucida sans unicode',arial,helvetica,sans-serif;text-transform:none;font-weight:normal;fill:#a0a0a0;" text-anchor="middle" transform="translate(0,0)" y="344" opacity="1">2</text><text x="273.38715486194474" style="color:#a0a0a0;cursor:default;font-size:10px;font-family:'lucida grande','lucida sans unicode',arial,helvetica,sans-serif;text-transform:none;font-weight:normal;fill:#a0a0a0;" text-anchor="middle" transform="translate(0,0)" y="344" opacity="1">4</text><text x="377.2286914765906" style="color:#a0a0a0;cursor:default;font-size:10px;font-family:'lucida grande','lucida sans unicode',arial,helvetica,sans-serif;text-transform:none;font-weight:normal;fill:#a0a0a0;" text-anchor="middle" transform="translate(0,0)" y="344" opacity="1">6</text><text x="481.07022809123646" style="color:#a0a0a0;cursor:default;font-size:10px;font-family:'lucida grande','lucida sans unicode',arial,helvetica,sans-serif;text-transform:none;font-weight:normal;fill:#a0a0a0;" text-anchor="middle" transform="translate(0,0)" y="344" opacity="1">8</text><text x="584" style="color:#a0a0a0;cursor:default;font-size:10px;font-family:'lucida grande','lucida sans unicode',arial,helvetica,sans-serif;text-transform:none;font-weight:normal;fill:#a0a0a0;" text-anchor="middle" transform="translate(0,0)" y="344" opacity="1">10</text></g><g class="highcharts-axis-labels highcharts-yaxis-labels"><text x="56" style="color:#a0a0a0;cursor:default;font-size:10px;font-family:'lucida grande','lucida sans unicode',arial,helvetica,sans-serif;text-transform:none;font-weight:normal;fill:#a0a0a0;width:188px;text-overflow:clip;" text-anchor="end" transform="translate(0,0)" y="330" opacity="1"><tspan>10</tspan></text><text x="56" style="color:#a0a0a0;cursor:default;font-size:10px;font-family:'lucida grande','lucida sans unicode',arial,helvetica,sans-serif;text-transform:none;font-weight:normal;fill:#a0a0a0;width:188px;text-overflow:clip;" text-anchor="end" transform="translate(0,0)" y="277" opacity="1"><tspan>12.5</tspan></text><text x="56" style="color:#a0a0a0;cursor:default;font-size:10px;font-family:'lucida grande','lucida sans unicode',arial,helvetica,sans-serif;text-transform:none;font-weight:normal;fill:#a0a0a0;width:188px;text-overflow:clip;" text-anchor="end" transform="translate(0,0)" y="224" opacity="1"><tspan>15</tspan></text><text x="56" style="color:#a0a0a0;cursor:default;font-size:10px;font-family:'lucida grande','lucida sans unicode',arial,helvetica,sans-serif;text-transform:none;font-weight:normal;fill:#a0a0a0;width:188px;text-overflow:clip;" text-anchor="end" transform="translate(0,0)" y="172" opacity="1"><tspan>17.5</tspan></text><text x="56" style="color:#a0a0a0;cursor:default;font-size:10px;font-family:'lucida grande','lucida sans unicode',arial,helvetica,sans-serif;text-transform:none;font-weight:normal;fill:#a0a0a0;width:188px;text-overflow:clip;" text-anchor="end" transform="translate(0,0)" y="119" opacity="1"><tspan>20</tspan></text><text x="56" style="color:#a0a0a0;cursor:default;font-size:10px;font-family:'lucida grande','lucida sans unicode',arial,helvetica,sans-serif;text-transform:none;font-weight:normal;fill:#a0a0a0;width:188px;text-overflow:clip;" text-anchor="end" transform="translate(0,0)" y="67" opacity="1"><tspan>22.5</tspan></text></g><g class="highcharts-tooltip" display="none" style="cursor:default;padding:0;pointer-events:none;white-space:nowrap;" transform="translate(0,0)"><path fill="none" d="M 3.5 0.5 L 13.5 0.5 C 16.5 0.5 16.5 0.5 16.5 3.5 L 16.5 13.5 C 16.5 16.5 16.5 16.5 13.5 16.5 L 3.5 16.5 C 0.5 16.5 0.5 16.5 0.5 13.5 L 0.5 3.5 C 0.5 0.5 0.5 0.5 3.5 0.5"  stroke="black" stroke-opacity="0.049999999999999996" stroke-width="5" transform="translate(1, 1)"></path><path fill="none" d="M 3.5 0.5 L 13.5 0.5 C 16.5 0.5 16.5 0.5 16.5 3.5 L 16.5 13.5 C 16.5 16.5 16.5 16.5 13.5 16.5 L 3.5 16.5 C 0.5 16.5 0.5 16.5 0.5 13.5 L 0.5 3.5 C 0.5 0.5 0.5 0.5 3.5 0.5"  stroke="black" stroke-opacity="0.09999999999999999" stroke-width="3" transform="translate(1, 1)"></path><path fill="none" d="M 3.5 0.5 L 13.5 0.5 C 16.5 0.5 16.5 0.5 16.5 3.5 L 16.5 13.5 C 16.5 16.5 16.5 16.5 13.5 16.5 L 3.5 16.5 C 0.5 16.5 0.5 16.5 0.5 13.5 L 0.5 3.5 C 0.5 0.5 0.5 0.5 3.5 0.5"  stroke="black" stroke-opacity="0.15" stroke-width="1" transform="translate(1, 1)"></path><path fill="rgb(0, 0, 0)" fill-opacity=" 0.75" d="M 3.5 0.5 L 13.5 0.5 C 16.5 0.5 16.5 0.5 16.5 3.5 L 16.5 13.5 C 16.5 16.5 16.5 16.5 13.5 16.5 L 3.5 16.5 C 0.5 16.5 0.5 16.5 0.5 13.5 L 0.5 3.5 C 0.5 0.5 0.5 0.5 3.5 0.5"></path><text x="8" style="font-size:12px;color:#f0f0f0;fill:#f0f0f0;" y="20"></text></g><text x="590" text-anchor="end" style="cursor:pointer;color:#666;font-size:9px;fill:#666;" y="395">meta-chart.com</text></svg>